<?xml version="1.0" encoding="UTF-8" standalone="no"?>
<!-- Created with Inkscape (http://www.inkscape.org/) -->

<svg
   width="210mm"
   height="297mm"
   viewBox="0 0 210 297"
   version="1.1"
   id="svg8110"
   xmlns="http://www.w3.org/2000/svg"
   xmlns:svg="http://www.w3.org/2000/svg"
   xmlns:rdf="http://www.w3.org/1999/02/22-rdf-syntax-ns#"
   xmlns:cc="http://creativecommons.org/ns#"
   xmlns:dc="http://purl.org/dc/elements/1.1/">
  <title
     id="title8716">siceaeux.svg</title>
  <defs
     id="defs8107" />
  <g
     id="layer1">
    <path
       id="rect8479"
       style="fill:#800000;stroke-width:0.264583"
       d="M 51.002951,32.752874 A 29.274113,25.903225 72.964444 0 0 34.889324,65.407076 29.274113,25.903225 72.964444 0 0 66.552356,89.072227 29.274113,25.903225 72.964444 0 0 69.937595,88.13278 l 40.449425,132.01106 c 1.15183,3.7591 5.10534,5.85807 8.86444,4.70624 3.7591,-1.15182 5.85807,-5.10532 4.70625,-8.86443 L 82.687423,81.295641 C 82.43464,80.470657 82.040647,79.731733 81.549648,79.083478 a 29.274113,25.903225 72.964444 0 0 4.271895,-23.497227 l -2.245755,0.431934 A 17.45704,23.419355 72.964444 0 1 63.669479,77.651026 17.45704,23.419355 72.964444 0 1 37.919391,65.643908 17.45704,23.419355 72.964444 0 1 57.707436,43.124164 17.45704,23.419355 72.964444 0 1 83.466431,55.121528 l -22.77328,5.264629 22.775691,-5.249694 a 17.45704,23.419355 72.964444 0 1 0.104536,0.85976 l 2.242726,-0.434788 A 29.274113,25.903225 72.964444 0 0 54.145033,31.910636 29.274113,25.903225 72.964444 0 0 51.002951,32.752874 Z" />
    <path
       id="path8552"
       style="fill:#800000;stroke-width:0.264583"
       d="m 146.35327,40.145678 a 25.903225,29.274113 22.178301 0 1 13.12172,33.967134 25.903225,29.274113 22.178301 0 1 -33.65685,20.731697 25.903225,29.274113 22.178301 0 1 -3.2874,-1.239109 L 70.411015,221.45927 c -1.484144,3.64072 -5.609886,5.37686 -9.25061,3.89271 -3.640715,-1.48414 -5.376862,-5.60987 -3.892718,-9.2506 L 110.4451,85.652923 c 0.32571,-0.799005 0.78436,-1.499637 1.33149,-2.10127 a 25.903225,29.274113 22.178301 0 1 -2.14847,-23.785561 l 2.198,0.631502 a 23.419355,17.45704 22.178301 0 0 17.88706,23.330103 23.419355,17.45704 22.178301 0 0 26.72272,-9.650613 23.419355,17.45704 22.178301 0 0 -17.68978,-24.202839 23.419355,17.45704 22.178301 0 0 -26.73071,9.640105 l 22.20969,7.284767 -22.21344,-7.270113 a 23.419355,17.45704 22.178301 0 0 -0.18118,0.846929 l -2.19471,-0.634066 a 25.903225,29.274113 22.178301 0 1 33.66356,-20.716682 25.903225,29.274113 22.178301 0 1 3.05394,1.120493 z" />
    <path
       style="fill:#4d4d4d;stroke-width:0.264583"
       id="path8554"
       d="m 99.697719,147.24658 a 2.6612904,5.5 0 0 1 -2.900756,4.95462 2.6612904,5.5 0 0 1 -2.398019,-5.99383 2.6612904,5.5 0 0 1 2.899729,-4.95719 2.6612904,5.5 0 0 1 2.399261,5.99171 l -2.649548,-0.51609 z" />
  </g>
  <metadata
     id="metadata8714">
    <rdf:RDF>
      <cc:Work
         rdf:about="">
        <dc:title>siceaeux.svg</dc:title>
      </cc:Work>
    </rdf:RDF>
  </metadata>
</svg>
