<?xml version="1.0" encoding="UTF-8" standalone="no"?>
<!-- Created with Inkscape (http://www.inkscape.org/) -->

<svg
   width="210mm"
   height="297mm"
   viewBox="0 0 210 297"
   version="1.1"
   id="svg10643"
   xmlns="http://www.w3.org/2000/svg"
   xmlns:svg="http://www.w3.org/2000/svg">
  <defs
     id="defs10640" />
  <g
     id="layer1">
    <g
       id="layer1-0"
       transform="matrix(0.62878048,0.34502956,-0.22659165,0.22527483,59.539756,-24.27169)">
      <path
         style="fill:#808080;stroke-width:0.264583"
         d="m 50.032258,122.77419 c -1.654378,-3.42692 -3.310294,-6.85703 -4.729905,-10.40543 -1.419611,-3.54839 -2.602408,-7.21506 -3.194317,-10.7637 -0.591909,-3.548652 -0.591909,-6.978758 -0.710141,-12.123875 -0.118232,-5.145118 -0.35479,-12.005333 -0.414008,-17.860249 -0.05922,-5.854915 0.05906,-10.704379 0.472818,-13.780475 0.413757,-3.076095 1.123434,-4.377169 2.010594,-5.796713 0.887159,-1.419543 1.951674,-2.957177 3.134897,-4.199559 1.183222,-1.242382 2.484296,-2.188618 3.66765,-2.839249 1.183353,-0.650631 2.247871,-1.005469 3.134702,-1.360308 0.886832,-0.354839 1.596511,-0.709679 2.661431,-1.064486 1.06492,-0.354808 2.484274,-0.709647 3.666861,-1.064524 1.182587,-0.354877 2.128825,-0.709715 3.844264,-1.06444 1.71544,-0.354725 4.199311,-0.709564 5.914187,-1.005338 1.714877,-0.295774 2.661115,-0.532334 5.79585,-0.768715 3.134735,-0.236382 8.457315,-0.47294 12.833806,-0.472787 4.376491,1.53e-4 7.806599,0.236712 9.817267,0.354894 2.010668,0.118182 2.602066,0.118182 3.903396,0.414345 1.30133,0.296163 3.31208,0.88756 5.79592,1.538007 2.48385,0.650446 5.44084,1.360123 8.98927,2.424812 3.54842,1.064689 7.6882,2.484043 10.58604,3.430184 2.89783,0.946141 4.55375,1.419261 6.9785,2.365758 2.42476,0.946497 5.61831,2.365852 8.04301,3.311828 2.42471,0.945976 4.08062,1.419093 6.15053,2.24736 2.06992,0.828267 4.55379,2.011062 6.26883,2.839053 1.71505,0.827992 2.66129,1.301112 3.78474,2.129531 1.12345,0.828419 2.42453,2.011217 4.25796,3.489564 1.83343,1.478348 4.19903,3.252545 5.49941,4.376678 1.30039,1.124132 1.53695,1.59725 2.18816,2.247338 0.65121,0.650089 1.71573,1.478047 3.608,3.370754 1.89227,1.892707 4.6127,4.849698 6.20953,6.564699 1.59683,1.715002 2.06995,2.188123 2.4832,2.898072 0.41326,0.70995 0.7681,1.656185 1.41883,3.075532 0.65073,1.419348 1.59697,3.311821 3.13465,6.268803 1.53768,2.956982 3.66671,6.978486 4.78963,9.817026 1.12292,2.83854 1.24119,4.49445 1.4189,5.79568 0.17771,1.30122 0.41427,2.24746 0.53216,4.25797 0.11789,2.01052 0.11789,5.08579 0.0587,9.10726 -0.0592,4.02148 -0.17745,8.98922 -0.41416,12.53739 -0.2367,3.54817 -0.59154,5.6772 -1.00562,7.33273 -0.41407,1.65552 -0.88719,2.83831 -1.18282,3.72574 -0.29563,0.88744 -0.41391,1.47883 -0.82791,3.25296 -0.414,1.77413 -1.12368,4.73112 -1.59669,7.33349 -0.47302,2.60237 -0.70958,4.84968 -0.82773,6.4466 -0.11816,1.59693 -0.11816,2.54317 -0.2367,3.3706 -0.11854,0.82742 -0.3551,1.5371 -0.65075,2.7201 -0.29565,1.18299 -0.65049,2.83891 -1.12366,4.2578 -0.47317,1.41889 -1.06456,2.60168 -1.77425,4.25777 -0.70968,1.65609 -1.53764,3.78512 -2.24729,5.91434 -0.70965,2.12922 -1.30105,4.25825 -1.89248,5.97301 -0.59142,1.71476 -1.18282,3.01584 -1.71507,4.31706 -0.53226,1.30122 -1.00538,2.6023 -1.24167,3.37169 -0.23629,0.7694 -0.23629,1.00596 -0.4134,1.24099 -0.17712,0.23503 -0.53196,0.4716 -1.36046,1.71415 -0.8285,1.24256 -2.12958,3.48987 -2.95729,4.79053 -0.82772,1.30065 -1.18256,1.65549 -1.71507,2.48391 -0.5325,0.82842 -1.24218,2.1295 -2.36576,3.84433 -1.12358,1.71483 -2.66122,3.84387 -4.31713,6.15033 -1.65592,2.30646 -3.43011,4.79033 -4.67156,6.26837 -1.24145,1.47804 -1.95113,1.95116 -2.48386,2.42469 -0.53272,0.47354 -0.88755,0.94665 -1.71512,1.65595 -0.82756,0.70929 -2.12863,1.65553 -4.79002,3.78462 -2.66139,2.12909 -6.6829,5.44092 -9.46224,7.56983 -2.77934,2.12892 -4.31697,3.07516 -5.97246,3.84394 -1.65549,0.76878 -3.42968,1.36017 -5.85456,2.3064 -2.42488,0.94623 -5.50014,2.2473 -7.3328,2.89812 -1.83266,0.65081 -2.42406,0.65081 -4.67145,0.76901 -2.2474,0.11821 -6.15063,0.35477 -9.75802,0.41403 -3.6074,0.0593 -6.91923,-0.059 -9.639459,-0.41346 -2.720229,-0.35445 -4.849263,-0.94585 -7.037441,-1.53727 -2.188179,-0.59143 -4.435492,-1.18283 -5.677666,-1.47894 -1.242175,-0.29611 -1.478734,-0.29611 -1.833572,-0.53135 -0.354838,-0.23523 -0.827959,-0.70835 -1.892231,-1.41845 -1.064273,-0.71011 -2.720186,-1.65634 -4.73091,-2.6619 -2.010724,-1.00555 -4.376315,-2.07007 -6.150508,-2.83897 -1.774193,-0.76889 -2.956985,-1.24201 -3.549981,-1.53703 -0.592995,-0.29501 -0.592995,-0.41329 -0.650812,-0.47375 -0.05782,-0.0605 -0.176095,-0.0605 -1.122242,-0.82806 -0.946147,-0.7676 -2.720345,-2.30523 -6.860037,-5.38066 -4.139691,-3.07542 -10.645065,-7.68832 -14.60796,-11.11795 -3.962895,-3.42963 -5.382254,-5.67695 -6.505827,-7.39203 -1.123572,-1.71509 -1.95153,-2.89789 -2.780085,-4.90858 -0.828555,-2.01069 -1.656512,-4.8494 -2.366154,-7.21498 -0.709642,-2.36558 -1.301038,-4.25805 -1.715261,-5.91405 -0.414223,-1.65599 -0.650782,-3.07534 -1.123822,-5.4409 -0.47304,-2.36556 -1.182715,-5.67738 -1.59684,-7.80649 -0.414125,-2.1291 -0.532404,-3.07534 -0.768719,-4.19889 -0.236316,-1.12356 -0.591154,-2.42463 -0.769,-3.43026 -0.177847,-1.00562 -0.177847,-1.71529 -0.295943,-3.01622 -0.118096,-1.30094 -0.354656,-3.19341 -0.236809,-4.96819 0.117846,-1.77479 0.590965,-3.43071 0.945863,-4.90903 0.354898,-1.47832 0.591456,-2.77939 0.946221,-4.13986 0.354765,-1.36047 0.827884,-2.77983 1.182753,-3.96248 0.35487,-1.18266 0.591427,-2.12889 0.828016,-2.78006 0.23659,-0.65116 0.473151,-1.00601 0.827952,-2.06992 0.3548,-1.06391 0.827918,-2.8381 1.715005,-4.90845 0.887088,-2.07034 2.188162,-4.43593 3.4302,-6.38781 1.242037,-1.95188 2.424837,-3.48951 3.075257,-4.43515 0.650421,-0.94563 0.768701,-1.30047 1.182851,-1.89255 0.414151,-0.59209 1.123828,-1.42005 1.655944,-2.12944 0.532116,-0.7094 0.886957,-1.3008 1.360308,-1.89258 0.473351,-0.59179 1.064751,-1.18318 1.478454,-1.7739 0.413704,-0.59071 0.650263,-1.18211 0.946002,-1.7738 0.29574,-0.5917 0.650581,-1.1831 1.005885,-1.77527"
         id="path10204" />
      <path
         style="fill:#999999;stroke-width:0.264583"
         d="m 103.25806,168.54838 c 0.23711,1.30411 0.47367,2.60518 0.71009,4.49758 0.23642,1.8924 0.47298,4.37627 0.94647,6.742 0.47348,2.36574 1.18315,4.61305 1.95245,6.3872 0.7693,1.77415 1.59726,3.07523 3.13549,4.31646 1.53824,1.24122 3.78555,2.42402 6.44684,3.78419 2.6613,1.36018 5.73657,2.89782 7.68819,3.84394 1.95162,0.94613 2.77958,1.30097 3.25243,1.53817 0.47284,0.2372 0.59112,0.35548 0.64894,0.2372 0.0578,-0.11828 0.0578,-0.47312 0.2351,-2.24748 0.17729,-1.77435 0.53213,-4.9679 0.1786,-7.21493 -0.35353,-2.24703 -1.41805,-3.54811 -2.48256,-4.84919 -1.06452,-1.30107 -2.12904,-2.60215 -3.31181,-4.02152 -1.18277,-1.41937 -2.48384,-2.95701 -3.13558,-3.8442 -0.65174,-0.8872 -0.65174,-1.12376 -0.76844,-1.30171 -0.11669,-0.17795 -0.35325,-0.29623 -0.82652,-0.65066 -0.47327,-0.35444 -1.18295,-0.94584 -1.7742,-1.36022 -0.59124,-0.41438 -1.06435,-0.65093 -1.36032,-0.77001 -0.29596,-0.11907 -0.41424,-0.11907 -0.47471,-0.17689 -0.0605,-0.0578 -0.0605,-0.1761 -0.47287,-0.47222 -0.41241,-0.29613 -1.24037,-0.76925 -2.71883,-1.42006 -1.47846,-0.65081 -3.6075,-1.47877 -5.73972,-2.30797"
         id="path10322" />
      <path
         style="fill:#999999;stroke-width:0.264583"
         d="m 165.70967,65.999999 c 0,3.314473 0,6.626302 0,8.696194 0,2.069893 0,2.897851 0.0605,3.370968 0.0605,0.473118 0.17875,0.591396 0.23657,0.827957 0.0578,0.23656 0.0578,0.591398 2.06947,4.258307 2.01166,3.66691 6.03316,10.645402 8.87224,15.021548 2.83909,4.376147 4.495,6.150337 5.79596,7.628917 1.30096,1.47858 2.2472,2.66138 3.19359,3.72576 0.9464,1.06439 1.89264,2.01063 2.42364,3.78488 0.531,1.77425 0.64928,4.3764 1.12324,6.38734 0.47397,2.01093 1.30193,3.43029 1.95303,4.31693 0.65111,0.88665 1.12423,1.24148 1.41884,1.6559 0.2946,0.41443 0.41288,0.88755 0.59124,1.12255 0.17835,0.23501 0.41491,0.23501 0.7104,0.47305 0.29548,0.23804 0.65032,0.71115 1.00294,1.18131"
         id="path10326" />
      <path
         style="fill:#999999;stroke-width:0.264583"
         d="m 96.870966,40.096773 c -2.011195,3.194251 -4.021946,6.387799 -5.323065,8.576149 -1.301119,2.18835 -1.892517,3.371145 -2.720369,4.671903 -0.827851,1.300757 -1.892367,2.720112 -2.838718,4.494797 -0.946351,1.774685 -1.774308,3.903717 -2.306497,5.145256 -0.532188,1.241539 -0.768747,1.596377 -0.886824,2.247932 -0.118076,0.651556 -0.118076,1.597793 0.237047,3.963578 0.355124,2.365785 1.064801,6.150733 1.478746,8.398028 0.413944,2.247296 0.532223,2.956974 0.710032,3.607607 0.177808,0.650633 0.414366,1.242029 0.59133,2.010714 0.176964,0.768686 0.295244,1.714923 0.709447,3.548353 0.414203,1.833431 1.12388,4.55386 2.12922,8.634494 1.005339,4.080633 2.306414,9.521496 3.371181,13.306486 1.064768,3.785 1.892725,5.91403 2.720804,7.86563 0.828079,1.95161 1.656038,3.72581 2.069271,4.73091 0.413233,1.00511 0.413233,1.24167 0.591977,1.53737 0.178743,0.2957 0.533577,0.65053 0.709675,0.94623 0.176098,0.2957 0.176098,0.53226 0.236561,0.64922 0.06046,0.11696 0.178741,0.11696 0.355632,0.3551 0.17689,0.23815 0.41345,0.71127 0.530936,1.06584 0.117485,0.35457 0.117485,0.59114 0.177946,0.76856 0.06046,0.17741 0.178741,0.29569 0.294377,0.41133"
         id="path10330" />
      <path
         style="fill:#999999;stroke-width:0.264583"
         d="m 132,83.032258 c 2.48442,13.723455 4.96829,27.443882 6.26922,34.954552 1.30093,7.51068 1.41921,8.81175 1.83336,11.23658 0.41416,2.42483 1.12383,5.97321 1.59695,8.3388 0.47312,2.3656 0.70968,3.54839 1.6562,6.38717 0.94652,2.83877 2.60243,7.33339 3.78528,10.4678 1.18284,3.13442 1.89252,4.90861 2.60092,6.67961"
         id="path10334" />
      <path
         style="fill:#999999;stroke-width:0.264583"
         d="m 30.870966,179.54839 c 3.193717,-2.83886 6.387265,-5.67757 8.161377,-7.27427 1.774111,-1.5967 2.128944,-1.95154 2.306364,-2.18677 0.17742,-0.23524 0.17742,-0.35352 0.297024,-0.41398 0.119604,-0.0605 0.356162,-0.0605 0.650537,-0.23789 0.294374,-0.17742 0.649213,-0.53226 1.182266,-0.82822 0.533052,-0.29597 1.242731,-0.53252 1.952143,-0.82822 0.709412,-0.2957 1.419088,-0.65054 2.306271,-1.06453 0.887182,-0.41398 1.9517,-0.8871 3.014986,-1.35967"
         id="path10342" />
      <path
         style="fill:#999999;stroke-width:0.264583"
         d="m 73.096773,146.90322 c 0,1.65856 0,3.31448 0.473585,5.73946 0.473585,2.42499 1.419822,5.61854 2.366042,8.87122 0.946219,3.25269 1.892454,6.56451 2.720389,9.52149 0.827936,2.95699 1.537613,5.55914 2.306854,7.62904 0.769241,2.06991 1.597195,3.60754 2.128909,4.9677 0.531713,1.36017 0.768273,2.54297 1.359852,4.67205 0.591578,2.12908 1.537816,5.20435 2.48308,8.27646"
         id="path10346" />
      <path
         style="fill:#999999;stroke-width:0.264583"
         d="m 153.29032,207.58064 c -4.37662,5.55949 -8.75296,11.11863 -11.53245,14.54863 -2.77949,3.43 -3.96229,4.73108 -4.55363,5.44201 -0.59134,0.71093 -0.59134,0.82921 -0.94641,1.47882 -0.35507,0.6496 -1.06475,1.83239 -1.95161,2.95566 -0.88687,1.12327 -1.95139,2.18778 -2.66122,2.95681 -0.70984,0.76903 -1.06468,1.24215 -1.35889,1.4785 -0.29422,0.23635 -0.53078,0.23635 -0.65038,0.29681 -0.1196,0.0605 -0.1196,0.17874 -0.1196,0.29437"
         id="path10350" />
      <path
         style="fill:#999999;stroke-width:0.264583"
         d="m 52.161289,110.35484 c 1.421221,2.3687 2.84058,4.7343 4.378509,6.86317 1.537929,2.12888 3.193841,4.02135 4.553874,5.73652 1.360034,1.71516 2.424547,3.25279 3.133864,4.43568 0.709316,1.18288 1.064154,2.01083 2.365607,4.02149 1.301453,2.01067 3.548765,5.20422 5.793954,8.39475"
         id="path10354" />
      <path
         style="fill:#999999;stroke-width:0.264583"
         d="m 53.580646,59.612902 c 0.949199,0.7119 1.895435,1.421578 3.314509,2.900387 1.419073,1.478808 3.311547,3.726121 4.256583,5.618492 0.945036,1.89237 0.945036,3.430003 1.300302,5.500139 0.355266,2.070137 1.064944,4.672288 1.715549,6.919615 0.650605,2.247327 1.242002,4.139799 1.656279,5.322601 0.414278,1.182802 0.650836,1.65592 0.768321,2.010494 0.117486,0.354575 0.117486,0.591133 0.23709,0.708089 0.119604,0.116957 0.356162,0.116957 1.597511,-0.297293 1.241349,-0.41425 3.488657,-1.242206 4.788997,-1.833332 1.30034,-0.591127 1.65518,-0.945966 2.128298,-1.419084 0.473117,-0.473118 1.064517,-1.064518 1.360215,-2.837387 0.295698,-1.77287 0.295698,-4.729859 0.295698,-8.278246 0,-3.548388 0,-7.688173 -0.05901,-10.408495 -0.05901,-2.720321 -0.177288,-4.021396 -0.295828,-5.325334"
         id="path10358" />
      <path
         style="fill:#999999;stroke-width:0.264583"
         d="m 108.93548,123.83871 c 1.06487,8.75561 2.12939,17.5083 3.25366,23.06756 1.12427,5.55927 2.30707,7.92486 3.01659,9.40336 0.70953,1.47851 0.94609,2.06991 1.06373,2.42447 0.11764,0.35456 0.11764,0.47284 0.23724,0.53066 0.1196,0.0578 0.35616,0.0578 0.65213,0.11749 0.29596,0.0597 0.6508,0.17795 1.00246,0.29517"
         id="path10362" />
      <path
         style="fill:#999999;stroke-width:0.264583"
         d="m 92.96774,211.83871 c 0.355553,1.54073 0.710391,3.07836 1.065262,4.55686 0.354871,1.47851 0.709711,2.89787 1.06469,4.13983 0.354979,1.24197 0.709816,2.30648 1.064483,3.60751 0.354666,1.30104 0.709505,2.83868 1.95192,5.61828 1.242415,2.77961 3.371445,6.80111 4.909195,9.58065 1.53775,2.77953 2.48399,4.31717 3.1349,5.26318 0.65091,0.94601 1.00575,1.30084 1.18184,1.12343 0.1761,-0.17742 0.1761,-0.8871 0.35325,-1.77472 0.17716,-0.88763 0.532,-1.95215 0.76872,-3.19367 0.23672,-1.24153 0.355,-2.66088 0.47312,-3.48951 0.11811,-0.82864 0.23639,-1.06519 0.29579,-2.83859 0.0594,-1.7734 0.0594,-5.08523 0.1185,-8.2197 0.0591,-3.13446 0.17737,-6.09145 0.29575,-9.05097"
         id="path10366" />
      <path
         style="fill:#999999;stroke-width:0.264583"
         d="m 65.645161,191.25806 c -3.192204,1.30053 -6.385753,2.60161 -8.279119,4.55446 -1.893366,1.95286 -2.484763,4.55501 -2.188333,7.69003 0.296431,3.13502 1.479228,6.80169 3.550165,9.52147 2.070937,2.71978 5.027925,4.49397 6.978193,5.02514 1.950269,0.53117 2.896508,-0.17851 3.960972,-1.00644 1.064465,-0.82792 2.247262,-1.77416 2.897373,-2.42378 0.650111,-0.64961 0.76839,-1.00445 1.005214,-1.36008 0.236823,-0.35564 0.591661,-0.71048 0.946367,-2.42438 0.354706,-1.7139 0.709546,-4.78917 0.82812,-6.85876 0.118574,-2.06959 2.95e-4,-3.13411 -0.05901,-3.78478 -0.0593,-0.65066 -0.0593,-0.88722 -2.245904,-2.24787 -2.186602,-1.36065 -6.562947,-3.84452 -10.942429,-6.33017"
         id="path10374" />
      <path
         style="fill:#999999;stroke-width:0.264583"
         d="m 119.93548,66.354837 c 1.42232,1.066738 2.84168,2.131257 4.25807,3.19355"
         id="path10378" />
      <path
         style="fill:#999999;stroke-width:0.264583"
         d="m 135.90322,67.419354 c 1.30159,7.572906 2.60267,15.142796 3.54914,19.874055 0.94648,4.731259 1.53787,6.623732 2.4252,8.871058 0.88733,2.247325 2.07012,4.849473 3.25147,7.448433"
         id="path10382" />
      <path
         style="fill:#999999;stroke-width:0.264583"
         d="m 167.12903,153.64516 c -0.23663,8.99182 -0.47319,17.98107 -0.94643,24.90024 -0.47325,6.91918 -1.18293,11.76864 -2.12927,15.49393 -0.94635,3.7253 -2.12915,6.32745 -3.3114,8.92841"
         id="path10386" />
      <path
         style="fill:#999999;stroke-width:0.264583"
         d="m 121.70968,60.322581 c -0.7102,2.248958 -1.41988,4.496267 -1.95204,6.802995 -0.53217,2.306729 -0.887,4.672321 -1.30094,8.1025 -0.41394,3.430178 -0.88706,7.924802 -1.35993,12.417084"
         id="path10390" />
      <path
         style="fill:#666666;stroke-width:0.264583"
         d="m 73.096773,111.77419 c 0.711047,1.65911 1.420726,3.31503 2.307647,5.79888 0.886921,2.48386 1.951437,5.79569 3.134627,8.57524 1.18319,2.77954 2.48427,5.02686 3.666953,7.21506 1.182683,2.18819 2.247199,4.31722 2.778664,5.49975 0.531465,1.18254 0.531465,1.41909 0.709273,2.24728 0.177808,0.8282 0.532646,2.24755 1.183637,3.84434 0.650991,1.5968 1.597227,3.37099 2.541781,5.14203"
         id="path10394" />
      <path
         style="fill:#808080;stroke-width:1.34112"
         d="m 379.53772,933.9671 c -10.43069,-0.75799 -21.82227,-2.89498 -38.88608,-7.29481 -20.77146,-5.35581 -25.34912,-7.02584 -32.85751,-11.98711 -10.04152,-6.63507 -21.87305,-12.67889 -40.91072,-20.89815 -9.42582,-4.06948 -16.99808,-8.62058 -25.48133,-15.31485 -6.63855,-5.2386 -25.28744,-19.38988 -41.44196,-31.44731 -34.23286,-25.55076 -47.87731,-38.07745 -57.74017,-53.01009 -10.11725,-15.31779 -11.74089,-18.97043 -19.43023,-43.71126 -8.68895,-27.95717 -23.847471,-101.86296 -25.031164,-122.04021 -0.745971,-12.71583 -0.418906,-15.78676 3.493834,-32.80484 5.1111,-22.23021 15.70574,-54.71975 22.74126,-69.73838 5.55096,-11.84956 22.59294,-38.2138 35.7334,-55.2802 4.66806,-6.06274 9.79969,-13.59547 11.40361,-16.73941 l 2.91621,-5.71626 7.83894,8.69268 c 4.31141,4.78096 7.84886,8.32876 7.86099,7.88397 0.0121,-0.44478 -3.21876,-7.68684 -7.17975,-16.09347 -9.2011,-19.52797 -16.37783,-38.7129 -20.5176,-54.84789 -2.74444,-10.69665 -3.47749,-18.01209 -4.5692,-45.59817 -1.87679,-47.42379 -1.89422,-118.09784 -0.0319,-129.41834 2.31905,-14.09705 8.23377,-24.9455 20.12536,-36.91289 8.77714,-8.83309 11.7821,-10.91066 21.75918,-15.04388 15.99635,-6.62683 37.09042,-12.40272 60.85349,-16.66265 19.35065,-3.46893 21.9779,-3.60834 69.72982,-3.70012 l 49.62154,-0.0954 28.4826,7.70749 c 37.09681,10.03853 88.69249,26.80599 112.32023,36.50161 10.31837,4.23413 24.31092,9.70753 31.09455,12.1631 6.78364,2.45557 19.33849,7.79422 27.89968,11.86365 21.58791,10.26148 47.88251,31.45436 82.13564,66.19953 l 25.77827,26.14857 18.78769,37.47484 c 10.33323,20.61117 19.72372,40.60449 20.86775,44.42958 4.29094,14.34683 6.09802,33.00577 5.71781,59.03869 l -0.36896,25.26152 -8.6202,-18.5559 c -9.96561,-21.45201 -11.45157,-23.66008 -10.23135,-15.20309 2.58796,17.93644 4.81885,23.73044 13.16762,34.19863 l 5.34798,6.70561 -0.81628,18.10516 c -0.82046,18.19768 -3.1052,32.29089 -6.84865,42.24536 -3.97723,10.57617 -11.42669,47.22306 -12.94634,63.68837 -1.92774,20.88692 -6.46181,39.73503 -13.54626,56.31175 -3.00189,7.02406 -8.93871,23.03062 -13.19291,35.57011 -10.08799,29.73493 -15.89899,44.35749 -20.25257,50.96266 -1.94471,2.95047 -10.31192,15.92584 -18.59382,28.83414 -19.83584,30.9165 -40.15189,58.86137 -49.45869,68.0308 -9.19656,9.06082 -63.31574,52.53773 -75.01404,60.2629 -4.92196,3.25029 -20.15464,10.21183 -36.21031,16.5486 -24.19114,9.54761 -29.24874,11.08187 -39.78443,12.06892 -19.34429,1.8123 -49.76594,2.37542 -65.71501,1.21641 z m 30.09076,-20.32727 c 2.53493,-12.48223 3.25222,-21.80223 4.15373,-53.97122 0.59934,-21.38596 0.91519,-39.05809 0.70188,-39.27138 -0.77762,-0.77763 -63.03046,-20.27351 -63.43718,-19.86679 -0.72827,0.72827 10.06636,41.68578 14.41705,54.70193 6.83341,20.44373 35.30415,73.49509 39.44215,73.49509 1.03715,0 2.80602,-5.65145 4.72237,-15.08763 z m 92.73021,-29.94995 c 4.51084,-5.10284 9.77112,-11.99366 11.6895,-15.31294 1.9184,-3.31928 7.789,-11.16485 13.0458,-17.4346 11.69057,-13.94326 38.95944,-48.32342 44.14442,-55.65659 l 3.79302,-5.36449 -4.80083,5.47765 c -2.64046,3.01272 -21.53905,26.24767 -41.99687,51.63323 -20.45782,25.38556 -37.6907,46.35673 -38.29527,46.6026 -0.60458,0.24588 -1.09924,1.03448 -1.09924,1.75246 0,2.25924 5.02669,-2.08995 13.51947,-11.69732 z M 261.66705,821.97753 c 7.2492,-4.84103 15.10839,-12.54165 17.54791,-17.19384 3.09704,-5.90613 5.67439,-22.68127 5.72682,-37.27398 0.0406,-11.32328 -0.30268,-13.34929 -2.62976,-15.51729 -1.47209,-1.37147 -11.41691,-7.57087 -22.09958,-13.77644 -19.06442,-11.07454 -19.35948,-11.31617 -15.9806,-13.08653 4.69982,-2.46249 3.47863,-3.10486 -3.96334,-2.08483 -4.88299,0.66929 -5.95168,1.23732 -4.84246,2.57384 1.06106,1.27851 0.73115,1.93471 -1.29619,2.57816 -1.49575,0.47474 -6.24758,3.21909 -10.55963,6.09857 -11.1623,7.4539 -15.52904,15.75101 -15.49364,29.43901 0.0634,24.5154 13.46061,47.90021 33.0503,57.68929 9.89388,4.94404 13.80826,5.04961 20.54017,0.55404 z M 613.55353,754.406 c 7.76187,-18.82274 12.07143,-41.0618 14.68839,-75.79792 1.68605,-22.37976 4.42334,-96.01139 3.59989,-96.83484 -0.84642,-0.84644 -1.24846,2.04705 -12.89592,92.81147 -5.86865,45.73228 -11.03619,85.26187 -11.48343,87.84353 -1.20589,6.9609 1.24196,3.73696 6.09107,-8.02224 z m -128.26558,-5.72426 c 1.70313,-14.17928 0.95158,-30.86968 -1.6477,-36.59182 -1.35179,-2.9759 -8.39806,-12.63199 -15.65836,-21.45797 -7.2603,-8.82598 -14.61619,-18.15951 -16.34639,-20.74117 -4.88934,-7.29539 -24.30666,-19.28748 -43.459,-26.84017 -9.32766,-3.67834 -17.38954,-6.6879 -17.91526,-6.6879 -0.52573,0 -0.62184,1.35789 -0.21356,3.01753 0.40827,1.65964 1.70038,10.56134 2.87137,19.78156 4.07573,32.09188 10.73383,50.60426 21.65883,60.22082 5.5467,4.88242 64.47203,36.15653 68.37476,36.28933 0.81928,0.0279 1.87017,-3.11772 2.33531,-6.99021 z M 303.05642,648.96127 c -13.69983,-49.34221 -25.29497,-90.61837 -25.76699,-91.7248 -1.66003,-3.89118 -1.89933,5.33714 -0.3927,15.14411 2.19472,14.28584 26.21153,97.60946 32.16475,111.59199 2.82644,6.63856 7.68077,20.82093 10.7874,31.51638 3.10663,10.69545 5.96494,20.52635 6.35179,21.84643 0.38684,1.3201 0.94212,2.16141 1.23394,1.86958 0.29181,-0.29181 -10.67837,-40.90148 -24.37819,-90.24369 z m -147.73899,2.82435 c 19.65322,-14.01473 35.74649,-25.88215 35.76283,-26.37203 0.0368,-1.10399 -27.92672,11.54666 -29.91232,13.53226 -0.79213,0.79213 -2.22479,1.44023 -3.18369,1.44023 -0.9589,0 -1.74346,0.52624 -1.74346,1.16945 0,0.64319 -8.75082,8.89876 -19.44628,18.34571 -28.78335,25.42342 -28.07368,25.11248 18.52292,-8.11562 z m 410.67518,-45.26289 c -0.30115,-0.92202 -15.15418,-66.25146 -33.00673,-145.17653 -17.85254,-78.92507 -32.94283,-144.03968 -33.53396,-144.69916 -0.59112,-0.65947 -0.79725,-0.0559 -0.45804,1.34113 1.24095,5.11127 20.72155,114.90597 26.74437,150.73421 10.77994,64.12715 13.19529,72.73497 38.29026,136.45923 1.23407,3.13373 2.9272,4.28984 1.9641,1.34112 z M 446.74875,601.8288 c -0.38304,-1.29083 -8.03367,-31.01346 -17.00142,-66.05029 -14.91004,-58.25323 -19.98038,-75.96313 -18.04624,-63.03276 0.38616,2.58166 1.92075,14.65176 3.41022,26.82245 5.95358,48.64822 10.46446,69.84333 19.18284,90.13378 5.38634,12.53575 6.01878,13.28551 12.0548,14.29115 0.60292,0.10045 0.78283,-0.8735 0.3998,-2.16433 z M 332.49599,552.97889 c -3.28229,-7.50499 -6.79677,-16.43685 -7.80995,-19.84859 -1.85338,-6.24099 -11.04696,-25.51536 -12.17044,-25.51536 -0.33157,0 1.4306,4.75083 3.91591,10.55741 2.48533,5.80658 6.11562,15.01003 8.06734,20.45212 4.66406,13.00515 11.57625,27.99986 12.9072,27.99986 0.58177,0 -1.62776,-6.14045 -4.91006,-13.64544 z m -71.64763,-44.02283 c -3.00544,-4.42571 -5.76618,-8.04674 -6.13499,-8.04674 -0.36881,0 1.78843,3.62103 4.79387,8.04674 3.00544,4.4257 5.76618,8.04673 6.13499,8.04673 0.36881,0 -1.78843,-3.62103 -4.79387,-8.04673 z m 35.54824,-40.91273 c -8.65834,-20.35461 -15.96398,-36.78684 -16.23476,-36.51608 -0.27076,0.27077 3.10419,10.41008 7.49988,22.5318 7.4569,20.56338 22.45567,53.01431 23.85593,51.61405 0.34177,-0.34177 -6.46271,-17.27517 -15.12105,-37.62977 z m -50.94073,17.06623 c -4.18076,-7.68143 -19.66119,-28.71984 -20.50884,-27.87218 -0.65962,0.65962 22.20017,34.28408 23.30824,34.28408 0.37972,0 -0.88001,-2.88536 -2.7994,-6.4119 z m 131.48011,-22.75752 c -0.46192,-10.14224 -2.96529,-84.20535 -5.56304,-164.58469 -2.59774,-80.37934 -4.91874,-146.33983 -5.15777,-146.57885 -0.3918,-0.3918 -12.96814,19.71318 -29.16681,46.6271 -3.32963,5.53213 -8.107,13.40535 -10.61639,17.49605 -2.50939,4.0907 -6.93528,13.3314 -9.8353,20.53491 l -5.27278,13.09728 3.67622,22.38101 c 5.28434,32.17136 26.15658,120.66281 35.31944,149.74285 3.20858,10.18301 15.1429,39.3759 17.83689,43.63131 0.70046,1.10643 2.83723,5.18009 4.74841,9.05258 1.91117,3.87249 3.78898,7.04089 4.17291,7.04089 0.38394,0 0.32014,-8.2982 -0.14178,-18.44044 z M 210.97843,436.12671 c -6.87075,-9.96411 -12.71524,-17.89965 -12.98776,-17.63454 -0.6905,0.67175 9.57437,16.89145 17.60747,27.82186 11.6376,15.83494 8.39829,8.69168 -4.61971,-10.18732 z m 501.31422,-7.8613 c -0.46712,-2.33566 -2.23514,-6.10756 -3.92891,-8.38201 -1.69377,-2.27445 -16.27778,-32.19836 -32.4089,-66.49757 -16.13113,-34.29922 -33.9016,-71.71654 -39.48993,-83.14961 l -10.16062,-20.7874 -0.38769,23.46965 -0.38769,23.46964 5.66076,11.212 c 16.47581,32.63296 41.1257,71.13566 60.24988,94.10928 7.69504,9.24394 15.45203,19.95616 17.23776,23.80492 3.7127,8.00195 4.83656,8.85715 3.61534,2.7511 z M 533.12503,328.91034 c -18.16418,-71.38902 -18.82011,-73.85861 -19.44929,-73.22656 -0.53684,0.53928 8.27381,50.94673 13.44381,76.91465 2.14525,10.77521 5.80617,23.32559 9.58446,32.8575 6.07121,15.31652 10.73893,25.48133 11.70112,25.48133 0.27609,0 -6.59995,-27.91211 -15.2801,-62.02692 z m -264.00635,1.46639 c 11.76937,-4.48954 16.29697,-7.64627 19.58477,-13.65492 2.07147,-3.78572 2.32017,-9.1519 2.32017,-50.06244 0,-25.20222 -0.33293,-46.15491 -0.73984,-46.56153 -0.40691,-0.40663 -19.41733,0.44487 -42.24537,1.89221 -22.82803,1.44734 -42.68212,2.63524 -44.12019,2.63977 -1.93596,0.006 -0.62703,1.77979 5.04244,6.83291 7.99233,7.12345 17.81024,19.09179 21.41715,26.10818 1.15887,2.25429 3.35626,10.70337 4.8831,18.77571 2.67351,14.13485 11.51777,45.51726 15.5423,55.14928 2.20813,5.2848 1.39761,5.33433 18.31547,-1.11917 z m 182.19267,-47.58841 c 4.35417,-25.7129 8.25371,-48.54238 8.66563,-50.73219 1.55006,-8.24015 -1.73106,-0.98312 -5.13513,11.35764 -4.00531,14.52044 -6.53143,29.77464 -9.54997,57.66827 -1.15742,10.69546 -2.46304,21.8603 -2.90139,24.81077 -0.43834,2.95047 -0.39173,4.97789 0.10354,4.50537 0.49531,-0.47253 4.46308,-21.89697 8.81726,-47.60986 z"
         id="path10536"
         transform="scale(0.26458333)" />
    </g>
    <path
       style="fill:#ffff00;stroke-width:0.264583"
       d="m 0.70967742,129.51613 c 0,0 207.93548258,20.58064 207.93548258,20.58064"
       id="path10910" />
    <circle
       id="path11038"
       style="fill:#ffff00;stroke:#000000;stroke-width:0.264583"
       cx="-0.70967746"
       cy="141.22581"
       r="0.047264166" />
    <circle
       id="path11042"
       style="fill:#ffff00;stroke:#000000;stroke-width:0.264583"
       cx="0.35483873"
       cy="143.35483"
       r="0.023632256" />
    <g
       id="layer1-1"
       transform="matrix(0.48551291,0.44858671,-0.57395702,0.21207983,132.27631,81.822995)">
      <path
         id="rect8479"
         style="fill:#800000;stroke-width:0.264583"
         d="M 51.002951,32.752874 A 29.274113,25.903225 72.964444 0 0 34.889324,65.407076 29.274113,25.903225 72.964444 0 0 66.552356,89.072227 29.274113,25.903225 72.964444 0 0 69.937595,88.13278 l 40.449425,132.01106 c 1.15183,3.7591 5.10534,5.85807 8.86444,4.70624 3.7591,-1.15182 5.85807,-5.10532 4.70625,-8.86443 L 82.687423,81.295641 C 82.43464,80.470657 82.040647,79.731733 81.549648,79.083478 a 29.274113,25.903225 72.964444 0 0 4.271895,-23.497227 l -2.245755,0.431934 A 17.45704,23.419355 72.964444 0 1 63.669479,77.651026 17.45704,23.419355 72.964444 0 1 37.919391,65.643908 17.45704,23.419355 72.964444 0 1 57.707436,43.124164 17.45704,23.419355 72.964444 0 1 83.466431,55.121528 l -22.77328,5.264629 22.775691,-5.249694 a 17.45704,23.419355 72.964444 0 1 0.104536,0.85976 l 2.242726,-0.434788 A 29.274113,25.903225 72.964444 0 0 54.145033,31.910636 29.274113,25.903225 72.964444 0 0 51.002951,32.752874 Z" />
      <path
         id="path8552"
         style="fill:#800000;stroke-width:0.264583"
         d="m 146.35327,40.145678 a 25.903225,29.274113 22.178301 0 1 13.12172,33.967134 25.903225,29.274113 22.178301 0 1 -33.65685,20.731697 25.903225,29.274113 22.178301 0 1 -3.2874,-1.239109 L 70.411015,221.45927 c -1.484144,3.64072 -5.609886,5.37686 -9.25061,3.89271 -3.640715,-1.48414 -5.376862,-5.60987 -3.892718,-9.2506 L 110.4451,85.652923 c 0.32571,-0.799005 0.78436,-1.499637 1.33149,-2.10127 a 25.903225,29.274113 22.178301 0 1 -2.14847,-23.785561 l 2.198,0.631502 a 23.419355,17.45704 22.178301 0 0 17.88706,23.330103 23.419355,17.45704 22.178301 0 0 26.72272,-9.650613 23.419355,17.45704 22.178301 0 0 -17.68978,-24.202839 23.419355,17.45704 22.178301 0 0 -26.73071,9.640105 l 22.20969,7.284767 -22.21344,-7.270113 a 23.419355,17.45704 22.178301 0 0 -0.18118,0.846929 l -2.19471,-0.634066 a 25.903225,29.274113 22.178301 0 1 33.66356,-20.716682 25.903225,29.274113 22.178301 0 1 3.05394,1.120493 z" />
      <path
         style="fill:#4d4d4d;stroke-width:0.264583"
         id="path8554"
         d="m 99.697719,147.24658 a 2.6612904,5.5 0 0 1 -2.900756,4.95462 2.6612904,5.5 0 0 1 -2.398019,-5.99383 2.6612904,5.5 0 0 1 2.899729,-4.95719 2.6612904,5.5 0 0 1 2.399261,5.99171 l -2.649548,-0.51609 z" />
    </g>
  </g>
</svg>
