<?xml version="1.0" encoding="utf-8"?>
<!-- Generator: Adobe Illustrator 26.4.1, SVG Export Plug-In . SVG Version: 6.00 Build 0)  -->
<svg version="1.1" id="Calque_1" xmlns="http://www.w3.org/2000/svg" xmlns:xlink="http://www.w3.org/1999/xlink" x="0px" y="0px"
	 viewBox="0 0 300 162" style="enable-background:new 0 0 300 162;" xml:space="preserve">
<style type="text/css">
	.st0{fill:#020203;}
</style>
<path class="st0" d="M90,85.9l29.2-78.6H99.9L86.5,41.4l3-34.1H69.2L40.1,85.9h18.8l14.3-38.1l-2.5,37.1L90,85.9z M112.7,85.9
	l29.2-78.6h-18.3L93.9,85.9H112.7z M165.6,81l-1-39.5l27.7-32.1L165.6,81z M300,53.3l-93.9,24.2l2.5-7.4h-19.8l6.4-18.8H212L217,37
	l-16.8,1l5.9-15.8h16.3l5.4-14.3H175l-19.3,22.7l9.4-23.2h-18.8l-29.2,78.6h19.3l12.4-33.6v33.6h24.7L85,109.1
	c-9.2,2.6-17.5,3.8-24.7,3.5c-7.2-0.3-12.8-2.3-16.8-5.9c-8.9-6.6-12-16.6-9.4-30.1c1.6-8.9,5.3-17.5,10.9-25.7
	C31.8,64.7,22.1,76.4,15.8,85.9C8.9,96.1,4.5,106.2,2.5,116.1S1.7,134,6,140.3c11.5,19.1,36.7,20.4,75.6,4L300,53.3z"/>
</svg>
